<mxfile host="app.diagrams.net" modified="2021-01-20T14:24:25.749Z" agent="5.0 (Windows NT 10.0; Win64; x64) AppleWebKit/537.36 (KHTML, like Gecko) Chrome/87.0.4280.141 Safari/537.36" etag="lcfF1fRlnyedZK4rzPRG" version="14.2.5" type="github">
  <diagram id="BSTLE7_yzejE6WdxNYc8" name="Page-1">
    <mxGraphModel dx="1360" dy="777" grid="1" gridSize="10" guides="1" tooltips="1" connect="1" arrows="1" fold="1" page="1" pageScale="1" pageWidth="850" pageHeight="1100" math="0" shadow="0">
      <root>
        <mxCell id="0" />
        <mxCell id="1" parent="0" />
        <mxCell id="Sye2rz8z6Uivf4PvG4rr-1" value="" style="rounded=0;whiteSpace=wrap;html=1;" vertex="1" parent="1">
          <mxGeometry x="475" y="155" width="90" height="130" as="geometry" />
        </mxCell>
        <mxCell id="Sye2rz8z6Uivf4PvG4rr-2" value="" style="rounded=0;whiteSpace=wrap;html=1;" vertex="1" parent="1">
          <mxGeometry x="315" y="155" width="90" height="130" as="geometry" />
        </mxCell>
        <mxCell id="Sye2rz8z6Uivf4PvG4rr-3" value="" style="rounded=0;whiteSpace=wrap;html=1;" vertex="1" parent="1">
          <mxGeometry x="75" y="156" width="210" height="130" as="geometry" />
        </mxCell>
        <mxCell id="Sye2rz8z6Uivf4PvG4rr-4" value="Service-A" style="rounded=0;whiteSpace=wrap;html=1;fillColor=#f0a30a;fontColor=#ffffff;strokeColor=none;" vertex="1" parent="1">
          <mxGeometry x="80" y="160" width="80" height="120" as="geometry" />
        </mxCell>
        <mxCell id="Sye2rz8z6Uivf4PvG4rr-5" value="Service-B" style="rounded=0;whiteSpace=wrap;html=1;fillColor=#f0a30a;fontColor=#ffffff;strokeColor=none;" vertex="1" parent="1">
          <mxGeometry x="200" y="160" width="80" height="120" as="geometry" />
        </mxCell>
        <mxCell id="Sye2rz8z6Uivf4PvG4rr-6" value="Service-C" style="rounded=0;whiteSpace=wrap;html=1;fillColor=#f0a30a;fontColor=#ffffff;strokeColor=none;" vertex="1" parent="1">
          <mxGeometry x="320" y="160" width="80" height="120" as="geometry" />
        </mxCell>
        <mxCell id="Sye2rz8z6Uivf4PvG4rr-7" value="" style="endArrow=none;dashed=1;html=1;dashPattern=1 3;strokeWidth=2;fillColor=#f0a30a;strokeColor=#BD7000;" edge="1" parent="1">
          <mxGeometry width="50" height="50" relative="1" as="geometry">
            <mxPoint x="418" y="179.4999999999999" as="sourcePoint" />
            <mxPoint x="468" y="180" as="targetPoint" />
          </mxGeometry>
        </mxCell>
        <mxCell id="Sye2rz8z6Uivf4PvG4rr-8" value="Service-D" style="rounded=0;whiteSpace=wrap;html=1;fillColor=#f0a30a;fontColor=#ffffff;strokeColor=none;" vertex="1" parent="1">
          <mxGeometry x="480" y="160" width="80" height="120" as="geometry" />
        </mxCell>
        <mxCell id="Sye2rz8z6Uivf4PvG4rr-9" value="throttler" style="rounded=1;whiteSpace=wrap;html=1;fillColor=#008a00;strokeColor=#005700;fontColor=#ffffff;" vertex="1" parent="1">
          <mxGeometry x="95" y="244" width="50" height="30" as="geometry" />
        </mxCell>
        <mxCell id="Sye2rz8z6Uivf4PvG4rr-10" value="throttler" style="rounded=1;whiteSpace=wrap;html=1;fillColor=#008a00;strokeColor=#005700;fontColor=#ffffff;" vertex="1" parent="1">
          <mxGeometry x="215" y="245" width="50" height="30" as="geometry" />
        </mxCell>
        <mxCell id="Sye2rz8z6Uivf4PvG4rr-11" value="throttler" style="rounded=1;whiteSpace=wrap;html=1;fillColor=#008a00;strokeColor=#005700;fontColor=#ffffff;" vertex="1" parent="1">
          <mxGeometry x="335" y="245" width="50" height="30" as="geometry" />
        </mxCell>
        <mxCell id="Sye2rz8z6Uivf4PvG4rr-12" value="throttler" style="rounded=1;whiteSpace=wrap;html=1;fillColor=#008a00;strokeColor=#005700;fontColor=#ffffff;" vertex="1" parent="1">
          <mxGeometry x="495" y="244" width="50" height="30" as="geometry" />
        </mxCell>
        <mxCell id="Sye2rz8z6Uivf4PvG4rr-17" value="&lt;b&gt;&lt;font style=&quot;font-size: 15px&quot;&gt;Network&lt;/font&gt;&lt;/b&gt;" style="ellipse;shape=cloud;whiteSpace=wrap;html=1;" vertex="1" parent="1">
          <mxGeometry x="110" y="380" width="450" height="100" as="geometry" />
        </mxCell>
        <mxCell id="Sye2rz8z6Uivf4PvG4rr-18" value="" style="curved=1;endArrow=classic;html=1;startArrow=classic;startFill=1;entryX=0.25;entryY=1;entryDx=0;entryDy=0;exitX=0.25;exitY=0.25;exitDx=0;exitDy=0;exitPerimeter=0;fillColor=#60a917;strokeColor=#2D7600;" edge="1" parent="1" source="Sye2rz8z6Uivf4PvG4rr-17" target="Sye2rz8z6Uivf4PvG4rr-4">
          <mxGeometry width="50" height="50" relative="1" as="geometry">
            <mxPoint x="330" y="350" as="sourcePoint" />
            <mxPoint x="380" y="300" as="targetPoint" />
            <Array as="points">
              <mxPoint x="230" y="350" />
              <mxPoint x="30" y="350" />
            </Array>
          </mxGeometry>
        </mxCell>
        <mxCell id="Sye2rz8z6Uivf4PvG4rr-19" value="" style="curved=1;endArrow=classic;html=1;startArrow=classic;startFill=1;entryX=0.75;entryY=1;entryDx=0;entryDy=0;exitX=0.4;exitY=0.1;exitDx=0;exitDy=0;exitPerimeter=0;fillColor=#60a917;strokeColor=#2D7600;" edge="1" parent="1" source="Sye2rz8z6Uivf4PvG4rr-17" target="Sye2rz8z6Uivf4PvG4rr-5">
          <mxGeometry width="50" height="50" relative="1" as="geometry">
            <mxPoint x="232.5" y="415" as="sourcePoint" />
            <mxPoint x="129" y="290" as="targetPoint" />
            <Array as="points">
              <mxPoint x="300" y="330" />
            </Array>
          </mxGeometry>
        </mxCell>
        <mxCell id="Sye2rz8z6Uivf4PvG4rr-20" value="" style="curved=1;endArrow=classic;html=1;startArrow=classic;startFill=1;entryX=0.5;entryY=1;entryDx=0;entryDy=0;exitX=0.625;exitY=0.2;exitDx=0;exitDy=0;exitPerimeter=0;fillColor=#60a917;strokeColor=#2D7600;" edge="1" parent="1" source="Sye2rz8z6Uivf4PvG4rr-17" target="Sye2rz8z6Uivf4PvG4rr-6">
          <mxGeometry width="50" height="50" relative="1" as="geometry">
            <mxPoint x="242.5" y="425" as="sourcePoint" />
            <mxPoint x="139" y="300" as="targetPoint" />
            <Array as="points">
              <mxPoint x="420" y="370" />
              <mxPoint x="360" y="350" />
            </Array>
          </mxGeometry>
        </mxCell>
        <mxCell id="Sye2rz8z6Uivf4PvG4rr-21" value="" style="curved=1;endArrow=classic;html=1;startArrow=classic;startFill=1;entryX=0.5;entryY=1;entryDx=0;entryDy=0;exitX=0.88;exitY=0.25;exitDx=0;exitDy=0;exitPerimeter=0;fillColor=#60a917;strokeColor=#2D7600;" edge="1" parent="1" source="Sye2rz8z6Uivf4PvG4rr-17" target="Sye2rz8z6Uivf4PvG4rr-12">
          <mxGeometry width="50" height="50" relative="1" as="geometry">
            <mxPoint x="401.25" y="410" as="sourcePoint" />
            <mxPoint x="370" y="290" as="targetPoint" />
            <Array as="points">
              <mxPoint x="510" y="370" />
              <mxPoint x="580" y="360" />
            </Array>
          </mxGeometry>
        </mxCell>
        <mxCell id="Sye2rz8z6Uivf4PvG4rr-22" value="Controller" style="whiteSpace=wrap;html=1;aspect=fixed;" vertex="1" parent="1">
          <mxGeometry x="330.5" y="530" width="55" height="55" as="geometry" />
        </mxCell>
        <mxCell id="Sye2rz8z6Uivf4PvG4rr-23" value="" style="shape=umlActor;verticalLabelPosition=bottom;verticalAlign=top;html=1;outlineConnect=0;" vertex="1" parent="1">
          <mxGeometry x="343" y="627" width="30" height="60" as="geometry" />
        </mxCell>
        <mxCell id="Sye2rz8z6Uivf4PvG4rr-24" value="" style="endArrow=classic;dashed=1;html=1;dashPattern=1 3;strokeWidth=2;startArrow=classic;startFill=1;endFill=1;entryX=0.5;entryY=1;entryDx=0;entryDy=0;exitX=0.5;exitY=0;exitDx=0;exitDy=0;exitPerimeter=0;" edge="1" parent="1" source="Sye2rz8z6Uivf4PvG4rr-23" target="Sye2rz8z6Uivf4PvG4rr-22">
          <mxGeometry width="50" height="50" relative="1" as="geometry">
            <mxPoint x="360" y="620" as="sourcePoint" />
            <mxPoint x="260" y="400" as="targetPoint" />
          </mxGeometry>
        </mxCell>
        <mxCell id="Sye2rz8z6Uivf4PvG4rr-25" style="edgeStyle=orthogonalEdgeStyle;curved=1;rounded=0;orthogonalLoop=1;jettySize=auto;html=1;startArrow=classic;startFill=1;endArrow=classic;endFill=1;dashed=1;dashPattern=1 2;exitX=1;exitY=0.5;exitDx=0;exitDy=0;entryX=0.5;entryY=0;entryDx=0;entryDy=0;" edge="1" parent="1" source="Sye2rz8z6Uivf4PvG4rr-9" target="Sye2rz8z6Uivf4PvG4rr-22">
          <mxGeometry relative="1" as="geometry">
            <mxPoint x="440" y="520" as="targetPoint" />
            <mxPoint x="160" y="300" as="sourcePoint" />
            <Array as="points">
              <mxPoint x="160" y="259" />
              <mxPoint x="160" y="265" />
              <mxPoint x="190" y="265" />
              <mxPoint x="190" y="330" />
              <mxPoint x="240" y="330" />
              <mxPoint x="240" y="443" />
              <mxPoint x="360" y="443" />
              <mxPoint x="360" y="460" />
              <mxPoint x="358" y="460" />
            </Array>
          </mxGeometry>
        </mxCell>
        <mxCell id="Sye2rz8z6Uivf4PvG4rr-26" style="edgeStyle=orthogonalEdgeStyle;curved=1;rounded=0;orthogonalLoop=1;jettySize=auto;html=1;startArrow=classic;startFill=1;endArrow=classic;endFill=1;dashed=1;dashPattern=1 2;exitX=0;exitY=0.5;exitDx=0;exitDy=0;entryX=0.5;entryY=0;entryDx=0;entryDy=0;" edge="1" parent="1" source="Sye2rz8z6Uivf4PvG4rr-10" target="Sye2rz8z6Uivf4PvG4rr-22">
          <mxGeometry relative="1" as="geometry">
            <mxPoint x="410" y="530" as="targetPoint" />
            <mxPoint x="154" y="275" as="sourcePoint" />
            <Array as="points">
              <mxPoint x="200" y="260" />
              <mxPoint x="200" y="310" />
              <mxPoint x="250" y="310" />
              <mxPoint x="250" y="400" />
              <mxPoint x="310" y="400" />
              <mxPoint x="310" y="440" />
              <mxPoint x="360" y="440" />
              <mxPoint x="360" y="470" />
              <mxPoint x="358" y="470" />
            </Array>
          </mxGeometry>
        </mxCell>
        <mxCell id="Sye2rz8z6Uivf4PvG4rr-27" value="" style="endArrow=classic;startArrow=classic;html=1;strokeWidth=2;exitX=0.5;exitY=0;exitDx=0;exitDy=0;entryX=0.55;entryY=0.95;entryDx=0;entryDy=0;entryPerimeter=0;" edge="1" parent="1" source="Sye2rz8z6Uivf4PvG4rr-22" target="Sye2rz8z6Uivf4PvG4rr-17">
          <mxGeometry width="50" height="50" relative="1" as="geometry">
            <mxPoint x="210" y="450" as="sourcePoint" />
            <mxPoint x="260" y="400" as="targetPoint" />
          </mxGeometry>
        </mxCell>
        <mxCell id="Sye2rz8z6Uivf4PvG4rr-28" style="edgeStyle=orthogonalEdgeStyle;curved=1;rounded=0;orthogonalLoop=1;jettySize=auto;html=1;startArrow=classic;startFill=1;endArrow=classic;endFill=1;dashed=1;dashPattern=1 2;exitX=1;exitY=0.5;exitDx=0;exitDy=0;entryX=0.5;entryY=0;entryDx=0;entryDy=0;" edge="1" parent="1" source="Sye2rz8z6Uivf4PvG4rr-11" target="Sye2rz8z6Uivf4PvG4rr-22">
          <mxGeometry relative="1" as="geometry">
            <mxPoint x="368" y="540" as="targetPoint" />
            <mxPoint x="225" y="275" as="sourcePoint" />
            <Array as="points">
              <mxPoint x="410" y="260" />
              <mxPoint x="410" y="265" />
              <mxPoint x="430" y="265" />
              <mxPoint x="430" y="320" />
              <mxPoint x="380" y="320" />
              <mxPoint x="380" y="410" />
              <mxPoint x="368" y="410" />
              <mxPoint x="368" y="450" />
              <mxPoint x="358" y="450" />
            </Array>
          </mxGeometry>
        </mxCell>
        <mxCell id="Sye2rz8z6Uivf4PvG4rr-29" style="edgeStyle=orthogonalEdgeStyle;curved=1;rounded=0;orthogonalLoop=1;jettySize=auto;html=1;startArrow=classic;startFill=1;endArrow=classic;endFill=1;dashed=1;dashPattern=1 2;exitX=1;exitY=0.5;exitDx=0;exitDy=0;" edge="1" parent="1" source="Sye2rz8z6Uivf4PvG4rr-12">
          <mxGeometry relative="1" as="geometry">
            <mxPoint x="360" y="530" as="targetPoint" />
            <mxPoint x="395" y="275" as="sourcePoint" />
            <Array as="points">
              <mxPoint x="580" y="259" />
              <mxPoint x="580" y="340" />
              <mxPoint x="490" y="340" />
              <mxPoint x="490" y="410" />
              <mxPoint x="378" y="410" />
              <mxPoint x="378" y="440" />
              <mxPoint x="360" y="440" />
            </Array>
          </mxGeometry>
        </mxCell>
        <mxCell id="Sye2rz8z6Uivf4PvG4rr-30" value="" style="endArrow=classic;startArrow=classic;html=1;strokeWidth=1;fillColor=#008a00;strokeColor=#005700;" edge="1" parent="1">
          <mxGeometry width="50" height="50" relative="1" as="geometry">
            <mxPoint x="600" y="100" as="sourcePoint" />
            <mxPoint x="640" y="100" as="targetPoint" />
          </mxGeometry>
        </mxCell>
        <mxCell id="Sye2rz8z6Uivf4PvG4rr-31" value="Data path" style="text;html=1;strokeColor=none;fillColor=none;align=center;verticalAlign=middle;whiteSpace=wrap;rounded=0;" vertex="1" parent="1">
          <mxGeometry x="660" y="90" width="60" height="20" as="geometry" />
        </mxCell>
        <mxCell id="Sye2rz8z6Uivf4PvG4rr-32" value="" style="endArrow=classic;startArrow=classic;html=1;strokeWidth=1;fillColor=#008a00;dashed=1;dashPattern=1 2;" edge="1" parent="1">
          <mxGeometry width="50" height="50" relative="1" as="geometry">
            <mxPoint x="600" y="130" as="sourcePoint" />
            <mxPoint x="640" y="130" as="targetPoint" />
          </mxGeometry>
        </mxCell>
        <mxCell id="Sye2rz8z6Uivf4PvG4rr-33" value="Control Path" style="text;html=1;strokeColor=none;fillColor=none;align=center;verticalAlign=middle;whiteSpace=wrap;rounded=0;" vertex="1" parent="1">
          <mxGeometry x="660" y="120" width="70" height="20" as="geometry" />
        </mxCell>
      </root>
    </mxGraphModel>
  </diagram>
</mxfile>
